<svg xmlns="http://www.w3.org/2000/svg" viewBox="0 0 1600 720" width="1600" height="720" style="background:#e8eaed; font-family:-apple-system, BlinkMacSystemFont, 'Segoe UI', Roboto, Helvetica, Arial, sans-serif;">
  <defs>
    <!-- Background Card Drop Shadow -->
    <filter id="backShadow" x="-10%" y="-10%" width="125%" height="125%">
      <feDropShadow dx="0" dy="6" stdDeviation="12" flood-color="#000000" flood-opacity="0.16" />
      <feDropShadow dx="0" dy="1" stdDeviation="3" flood-color="#000000" flood-opacity="0.08" />
    </filter>

    <!-- Foreground Center Card Drop Shadow (Elevated over both sides) -->
    <filter id="frontShadow" x="-15%" y="-15%" width="130%" height="135%">
      <feDropShadow dx="0" dy="16" stdDeviation="20" flood-color="#000000" flood-opacity="0.28" />
      <feDropShadow dx="-4" dy="4" stdDeviation="8" flood-color="#000000" flood-opacity="0.15" />
      <feDropShadow dx="4" dy="4" stdDeviation="8" flood-color="#000000" flood-opacity="0.15" />
    </filter>
  </defs>

  <!-- Ambient Light Grey Presentation Canvas -->
  <rect width="1600" height="720" fill="#e8eaed" />

  <!-- ======================================================== -->
  <!-- LAYER 1 (LEFT SHEET): Page 1 - Heuristic Evaluation (Homepage) -->
  <!-- ======================================================== -->
  <g id="leftSheet1" transform="translate(40, 36)" filter="url(#backShadow)">
    <!-- White Paper Sheet -->
    <rect width="665" height="520" rx="3" fill="#ffffff" stroke="#d1d5db" stroke-width="0.8" />

    <!-- Top Right Logo -->
    <g transform="translate(585, 18)">
      <rect x="0" y="0" width="16" height="16" rx="2" fill="#0284c7" />
      <text x="8" y="11" font-size="9" font-weight="900" fill="#ffffff" text-anchor="middle">p*</text>
      <text x="20" y="8" font-size="7.5" font-weight="bold" fill="#0f172a">purchasing</text>
      <text x="20" y="15" font-size="6" fill="#64748b">platform</text>
    </g>

    <!-- LEFT COLUMN: Desktop Browser UI (Wireframe) -->
    <g transform="translate(24, 30)">
      <!-- Browser window outline -->
      <rect x="0" y="0" width="310" height="435" rx="3" fill="#ffffff" stroke="#cbd5e1" stroke-width="0.9" />

      <!-- Browser Top Nav -->
      <g transform="translate(8, 8)">
        <rect x="0" y="0" width="12" height="12" rx="2" fill="#0284c7" />
        <text x="6" y="8.5" font-size="7" font-weight="900" fill="#ffffff" text-anchor="middle">p*</text>
        <text x="15" y="6.5" font-size="6" font-weight="bold" fill="#0f172a">purchasing</text>
        <text x="15" y="12" font-size="5" fill="#64748b">platform</text>

        <text x="120" y="9" font-size="5" fill="#64748b">Corporate Catalog</text>
        <text x="182" y="9" font-size="5" fill="#64748b">My Favorites</text>
        <text x="232" y="9" font-size="5" fill="#64748b">Account</text>
        <text x="268" y="9" font-size="5" fill="#0284c7" font-weight="bold">Cart 0</text>
      </g>

      <!-- Search Banner (Teal) -->
      <g transform="translate(8, 26)">
        <rect x="0" y="0" width="294" height="20" rx="2" fill="#00738c" />
        <rect x="4" y="3" width="232" height="14" rx="1.5" fill="#ffffff" />
        <text x="10" y="12.5" font-size="5.5" fill="#94a3b8">What would you like to find today?</text>
        <rect x="240" y="3" width="50" height="14" rx="1.5" fill="#65a30d" />
        <text x="265" y="12.5" font-size="5.5" font-weight="bold" fill="#ffffff" text-anchor="middle">Search</text>
      </g>

      <!-- Catalog Body: Sidebar + Grid -->
      <g transform="translate(8, 52)">
        <!-- Category Sidebar -->
        <g transform="translate(0, 0)">
          <text x="0" y="8" font-size="7" font-weight="bold" fill="#1e293b">Products</text>
          <g font-size="4.5" fill="#64748b">
            <text x="0" y="18">Best Deals</text>
            <text x="0" y="26">Appliances</text>
            <text x="0" y="34">Breakroom</text>
            <text x="0" y="42">Building Materials</text>
            <text x="0" y="50">Cleaning &amp; Janitorial</text>
            <text x="0" y="58">Doors &amp; Windows</text>
            <text x="0" y="66">Electrical</text>
            <text x="0" y="74">Fitness &amp; Exercise</text>
            <text x="0" y="82">Furniture</text>
            <text x="0" y="90">Hardware &amp; Tools</text>
            <text x="0" y="98">Heating &amp; Cooling</text>
            <text x="0" y="106">Internal Finishings</text>
            <text x="0" y="114">Lawn &amp; Garden</text>
            <text x="0" y="122">Lighting &amp; Fans</text>
            <text x="0" y="130">Manufactured Housing</text>
            <text x="0" y="138">Material Handling</text>
            <text x="0" y="146">Office Supplies</text>
            <text x="0" y="154">Paint</text>
            <text x="0" y="162">Plumbing</text>
            <text x="0" y="170">Safety &amp; Security</text>
            <text x="0" y="178">Technology</text>
          </g>

          <text x="0" y="196" font-size="7" font-weight="bold" fill="#1e293b">Services</text>
          <g font-size="4.5" fill="#64748b">
            <text x="0" y="206">Flooring</text>
            <text x="0" y="214">Paving</text>
            <text x="0" y="222">Refuse Management</text>
            <text x="0" y="230">Vehicles</text>
          </g>

          <text x="0" y="246" font-size="7" font-weight="bold" fill="#1e293b">Favorites</text>
        </g>

        <!-- Vertical Divider -->
        <line x1="58" y1="0" x2="58" y2="345" stroke="#f1f5f9" stroke-width="1" />

        <!-- 4x4 Products Grid matching Image 1 -->
        <g transform="translate(68, 0)">
          <!-- Row 1: Salt, 2016 Calendars, Space Heaters, Appliances -->
          <g transform="translate(0, 0)">
            <rect x="0" y="0" width="48" height="46" rx="2" fill="#f8fafc" stroke="#e2e8f0" stroke-width="0.6" />
            <rect x="12" y="6" width="24" height="20" fill="#ea580c" opacity="0.9" rx="1.5" />
            <text x="24" y="34" font-size="4.5" fill="#334155" text-anchor="middle">Salt</text>
          </g>
          <g transform="translate(56, 0)">
            <rect x="0" y="0" width="48" height="46" rx="2" fill="#f8fafc" stroke="#e2e8f0" stroke-width="0.6" />
            <rect x="8" y="7" width="32" height="18" fill="#64748b" rx="1.5" />
            <text x="24" y="34" font-size="4.5" fill="#334155" text-anchor="middle">2016 Calendars</text>
          </g>
          <g transform="translate(112, 0)">
            <rect x="0" y="0" width="48" height="46" rx="2" fill="#f8fafc" stroke="#e2e8f0" stroke-width="0.6" />
            <rect x="14" y="6" width="20" height="20" rx="3" fill="#475569" />
            <text x="24" y="34" font-size="4.5" fill="#334155" text-anchor="middle">Space Heaters</text>
          </g>
          <g transform="translate(168, 0)">
            <rect x="0" y="0" width="48" height="46" rx="2" fill="#f8fafc" stroke="#e2e8f0" stroke-width="0.6" />
            <rect x="10" y="5" width="28" height="22" rx="1.5" fill="#334155" />
            <text x="24" y="34" font-size="4.5" fill="#334155" text-anchor="middle">Appliances</text>
          </g>

          <!-- Row 2: Electrical, Janitorial, Safety & Security, Copy Paper -->
          <g transform="translate(0, 54)">
            <rect x="0" y="0" width="48" height="46" rx="2" fill="#f8fafc" stroke="#e2e8f0" stroke-width="0.6" />
            <rect x="17" y="7" width="14" height="20" rx="2" fill="#0284c7" />
            <text x="24" y="34" font-size="4.5" fill="#334155" text-anchor="middle">Electrical</text>
          </g>
          <g transform="translate(56, 54)">
            <rect x="0" y="0" width="48" height="46" rx="2" fill="#f8fafc" stroke="#e2e8f0" stroke-width="0.6" />
            <rect x="16" y="6" width="16" height="22" rx="4" fill="#059669" />
            <text x="24" y="34" font-size="4.5" fill="#334155" text-anchor="middle">Janitorial</text>
          </g>
          <g transform="translate(112, 54)">
            <rect x="0" y="0" width="48" height="46" rx="2" fill="#f8fafc" stroke="#e2e8f0" stroke-width="0.6" />
            <circle cx="24" cy="17" r="11" fill="#e2e8f0" stroke="#94a3b8" stroke-width="1" />
            <text x="24" y="34" font-size="4.5" fill="#334155" text-anchor="middle">Safety &amp; Security</text>
          </g>
          <g transform="translate(168, 54)">
            <rect x="0" y="0" width="48" height="46" rx="2" fill="#f8fafc" stroke="#e2e8f0" stroke-width="0.6" />
            <rect x="10" y="9" width="28" height="18" rx="1.5" fill="#dc2626" />
            <text x="24" y="34" font-size="4.5" fill="#334155" text-anchor="middle">Copy Paper</text>
          </g>

          <!-- Row 3: Patio & Outdoor, Lighting, Breakroom, Paper Towels -->
          <g transform="translate(0, 108)">
            <rect x="0" y="0" width="48" height="46" rx="2" fill="#f8fafc" stroke="#e2e8f0" stroke-width="0.6" />
            <rect x="11" y="9" width="26" height="18" rx="1.5" fill="#b45309" />
            <text x="24" y="34" font-size="4.5" fill="#334155" text-anchor="middle">Patio &amp; Outdoor</text>
          </g>
          <g transform="translate(56, 108)">
            <rect x="0" y="0" width="48" height="46" rx="2" fill="#f8fafc" stroke="#e2e8f0" stroke-width="0.6" />
            <path d="M 20,10 C 20,6 28,6 28,10 L 27,22 L 21,22 Z" fill="#fef08a" stroke="#ca8a04" stroke-width="0.7" />
            <text x="24" y="34" font-size="4.5" fill="#334155" text-anchor="middle">Lighting</text>
          </g>
          <g transform="translate(112, 108)">
            <rect x="0" y="0" width="48" height="46" rx="2" fill="#f8fafc" stroke="#e2e8f0" stroke-width="0.6" />
            <rect x="12" y="8" width="24" height="20" rx="2" fill="#b91c1c" />
            <text x="24" y="34" font-size="4.5" fill="#334155" text-anchor="middle">Breakroom</text>
          </g>
          <g transform="translate(168, 108)">
            <rect x="0" y="0" width="48" height="46" rx="2" fill="#f8fafc" stroke="#e2e8f0" stroke-width="0.6" />
            <rect x="10" y="10" width="28" height="17" rx="1.5" fill="#d97706" />
            <text x="24" y="34" font-size="4.5" fill="#334155" text-anchor="middle">Paper Towels</text>
          </g>

          <!-- Row 4: Signs (STOP), Paint, Ink & Toner, Plumbing -->
          <g transform="translate(0, 162)">
            <rect x="0" y="0" width="48" height="46" rx="2" fill="#f8fafc" stroke="#e2e8f0" stroke-width="0.6" />
            <polygon points="24,7 36,12 36,25 24,30 12,25 12,12" fill="#dc2626" />
            <text x="24" y="21" font-size="5" font-weight="900" fill="#ffffff" text-anchor="middle">STOP</text>
            <text x="24" y="38" font-size="4.5" fill="#334155" text-anchor="middle">Signs</text>
          </g>
          <g transform="translate(56, 162)">
            <rect x="0" y="0" width="48" height="46" rx="2" fill="#f8fafc" stroke="#e2e8f0" stroke-width="0.6" />
            <rect x="15" y="9" width="18" height="20" rx="1.5" fill="#e2e8f0" stroke="#64748b" stroke-width="0.8" />
            <text x="24" y="38" font-size="4.5" fill="#334155" text-anchor="middle">Paint</text>
          </g>
          <g transform="translate(112, 162)">
            <rect x="0" y="0" width="48" height="46" rx="2" fill="#f8fafc" stroke="#e2e8f0" stroke-width="0.6" />
            <rect x="14" y="9" width="20" height="20" rx="1.5" fill="#0284c7" />
            <text x="24" y="38" font-size="4.5" fill="#334155" text-anchor="middle">Ink &amp; Toner</text>
          </g>
          <g transform="translate(168, 162)">
            <rect x="0" y="0" width="48" height="46" rx="2" fill="#f8fafc" stroke="#e2e8f0" stroke-width="0.6" />
            <path d="M 20,28 L 20,14 C 20,9 29,9 29,16 L 29,20" fill="none" stroke="#64748b" stroke-width="2" />
            <text x="24" y="38" font-size="4.5" fill="#334155" text-anchor="middle">Plumbing</text>
          </g>

          <!-- Favorites Carousel at bottom of wireframe -->
          <g transform="translate(0, 216)">
            <rect x="0" y="0" width="48" height="38" rx="2" fill="#f8fafc" stroke="#e2e8f0" stroke-width="0.5" />
            <rect x="18" y="4" width="12" height="20" rx="1" fill="#059669" />
            <rect x="56" y="0" width="48" height="38" rx="2" fill="#f8fafc" stroke="#e2e8f0" stroke-width="0.5" />
            <rect x="66" y="6" width="28" height="16" fill="#cbd5e1" />
            <rect x="112" y="0" width="48" height="38" rx="2" fill="#f8fafc" stroke="#e2e8f0" stroke-width="0.5" />
            <rect x="124" y="4" width="24" height="20" fill="#ea580c" />
          </g>
        </g>
      </g>

      <!-- Numbered Orange Badges matching Image 1 exactly -->
      <!-- Badge 1: Search -->
      <g transform="translate(182, 20)">
        <circle cx="8" cy="8" r="7" fill="#f59e0b" stroke="#ffffff" stroke-width="1.5" />
        <text x="8" y="10.5" font-size="7.5" font-weight="bold" fill="#ffffff" text-anchor="middle">1</text>
      </g>
      <!-- Badge 2: Top row -->
      <g transform="translate(186, 95)">
        <circle cx="8" cy="8" r="7" fill="#f59e0b" stroke="#ffffff" stroke-width="1.5" />
        <text x="8" y="10.5" font-size="7.5" font-weight="bold" fill="#ffffff" text-anchor="middle">2</text>
      </g>
      <!-- Badge 3: Row 3 Patio -->
      <g transform="translate(140, 150)">
        <circle cx="8" cy="8" r="7" fill="#f59e0b" stroke="#ffffff" stroke-width="1.5" />
        <text x="8" y="10.5" font-size="7.5" font-weight="bold" fill="#ffffff" text-anchor="middle">3</text>
      </g>
      <!-- Badge 4: Services -->
      <g transform="translate(48, 222)">
        <circle cx="8" cy="8" r="7" fill="#f59e0b" stroke="#ffffff" stroke-width="1.5" />
        <text x="8" y="10.5" font-size="7.5" font-weight="bold" fill="#ffffff" text-anchor="middle">4</text>
      </g>
      <!-- Badge 4: Favorites -->
      <g transform="translate(48, 280)">
        <circle cx="8" cy="8" r="7" fill="#f59e0b" stroke="#ffffff" stroke-width="1.5" />
        <text x="8" y="10.5" font-size="7.5" font-weight="bold" fill="#ffffff" text-anchor="middle">4</text>
      </g>
    </g>

    <!-- RIGHT COLUMN: Findings 1 - 4 (Exact copy from Image 1) -->
    <g transform="translate(350, 42)">
      <!-- Item 1 -->
      <g transform="translate(0, 0)">
        <text x="0" y="10" font-size="8" font-weight="bold" fill="#0f172a">1.</text>
        <text x="16" y="10" font-size="7.5" fill="#1e293b">The scarcity of promotions on an ecommerce site is</text>
        <text x="16" y="20" font-size="7.5" fill="#1e293b">rare. It's ideal to highlight certain sections / items</text>
        <text x="16" y="30" font-size="7.5" fill="#1e293b">from your offerings whenever appropriate.</text>
        <text x="16" y="42" font-size="7.5" font-weight="bold" fill="#15803d">Recommendation: <tspan font-weight="normal" fill="#166534">Add a promotional section to</tspan></text>
        <text x="16" y="52" font-size="7.5" fill="#166534">the landing page, ideally above the fold, close to the top.</text>
      </g>

      <!-- Item 2 -->
      <g transform="translate(0, 72)">
        <text x="0" y="10" font-size="8" font-weight="bold" fill="#0f172a">2.</text>
        <text x="16" y="10" font-size="7.5" fill="#1e293b">This section is unlabeled and the organization is</text>
        <text x="16" y="20" font-size="7.5" fill="#1e293b">questionable. After review, this looks like it's ordered</text>
        <text x="16" y="30" font-size="7.5" fill="#1e293b">by the "top sellers". This is a great idea, but the</text>
        <text x="16" y="40" font-size="7.5" fill="#1e293b">execution is sparse and the space could be used</text>
        <text x="16" y="50" font-size="7.5" fill="#1e293b">more effectively in conjunction with other parts of the site.</text>
        <text x="16" y="62" font-size="7.5" font-weight="bold" fill="#15803d">Recommendation: <tspan font-weight="normal" fill="#166534">Label the section appropriately,</tspan></text>
        <text x="16" y="72" font-size="7.5" fill="#166534">and reduce its size. Allowing for other sections to make use</text>
        <text x="16" y="82" font-size="7.5" fill="#166534">of valuable real estate, above the fold and otherwise.</text>
      </g>

      <!-- Item 3 -->
      <g transform="translate(0, 180)">
        <text x="0" y="10" font-size="8" font-weight="bold" fill="#0f172a">3.</text>
        <text x="16" y="10" font-size="7.5" fill="#1e293b">Some images are loading slowly. This is due to not</text>
        <text x="16" y="20" font-size="7.5" fill="#1e293b">optimizing them for different display sizes.</text>
        <text x="16" y="32" font-size="7.5" font-weight="bold" fill="#15803d">Recommendation: <tspan font-weight="normal" fill="#166534">Optimize how Cloudinary is being</tspan></text>
        <text x="16" y="42" font-size="7.5" fill="#166534">used for distribution of imagery.</text>
      </g>

      <!-- Item 4 -->
      <g transform="translate(0, 245)">
        <text x="0" y="10" font-size="8" font-weight="bold" fill="#0f172a">4.</text>
        <text x="16" y="10" font-size="7.5" fill="#1e293b">There are major sections of your landing page that</text>
        <text x="16" y="20" font-size="7.5" fill="#1e293b">may not be garnering traffic as users are not able to</text>
        <text x="16" y="30" font-size="7.5" fill="#1e293b">see them easily. (see Appendix A.1)</text>
        <text x="16" y="42" font-size="7.5" font-weight="bold" fill="#15803d">Recommendation: <tspan font-weight="normal" fill="#166534">Redesign the landing page to take</tspan></text>
        <text x="16" y="52" font-size="7.5" fill="#166534">all viewports into account.</text>
      </g>
    </g>

    <!-- Bottom Left Copyright -->
    <text x="24" y="495" font-size="6.5" fill="#94a3b8">©2016 Purchasing Platform, LLC.</text>
  </g>

  <!-- ======================================================== -->
  <!-- LAYER 2 (RIGHT SHEET): Page 12 - Appendix A.1 and B.1 (From Image 3) -->
  <!-- ======================================================== -->
  <g id="rightSheet3" transform="translate(895, 36)" filter="url(#backShadow)">
    <!-- White Paper Sheet -->
    <rect width="665" height="520" rx="3" fill="#ffffff" stroke="#d1d5db" stroke-width="0.8" />

    <!-- Top Left Title: Appendix -->
    <text x="30" y="45" font-size="22" font-weight="bold" fill="#0284c7">Appendix</text>

    <!-- SCREEN A.1 (Catalog Overview) -->
    <g transform="translate(30, 65)">
      <text x="0" y="12" font-size="12" font-weight="bold" fill="#64748b">A.1</text>
      <!-- Mini Browser Window -->
      <g transform="translate(0, 18)">
        <rect x="0" y="0" width="285" height="355" rx="3" fill="#ffffff" stroke="#cbd5e1" stroke-width="0.8" />
        <!-- Header -->
        <rect x="4" y="4" width="277" height="18" fill="#0284c7" rx="1.5" />
        <text x="12" y="16" font-size="8" font-weight="bold" fill="#ffffff">p* purchasing platform</text>
        <text x="155" y="16" font-size="5" fill="#e0f2fe">Corporate Catalog | My Favorites | Account | Cart</text>

        <!-- Search Bar -->
        <rect x="4" y="26" width="277" height="16" fill="#00738c" rx="1.5" />
        <rect x="6" y="29" width="230" height="10" fill="#ffffff" rx="1" />
        <rect x="240" y="29" width="37" height="10" fill="#65a30d" rx="1" />
        <text x="258" y="36.5" font-size="5" font-weight="bold" fill="#ffffff" text-anchor="middle">Search</text>

        <!-- Sidebar + Grid inside A.1 -->
        <g transform="translate(6, 48)">
          <!-- Sidebar lines -->
          <rect x="0" y="4" width="45" height="5" rx="1" fill="#cbd5e1" />
          <rect x="0" y="14" width="40" height="4" rx="1" fill="#e2e8f0" />
          <rect x="0" y="22" width="48" height="4" rx="1" fill="#e2e8f0" />
          <rect x="0" y="30" width="42" height="4" rx="1" fill="#e2e8f0" />
          <rect x="0" y="38" width="46" height="4" rx="1" fill="#e2e8f0" />
          <rect x="0" y="46" width="38" height="4" rx="1" fill="#e2e8f0" />
          <rect x="0" y="54" width="44" height="4" rx="1" fill="#e2e8f0" />

          <!-- Product Grid inside A.1 -->
          <g transform="translate(54, 0)">
            <!-- Row 1: Salt, Paint, Space Heaters, Appliances -->
            <rect x="0" y="4" width="48" height="45" rx="2" fill="#f8fafc" stroke="#e2e8f0" stroke-width="0.6" />
            <rect x="12" y="9" width="24" height="20" fill="#ea580c" rx="1.5" />
            <rect x="56" y="4" width="48" height="45" rx="2" fill="#f8fafc" stroke="#e2e8f0" stroke-width="0.6" />
            <rect x="68" y="9" width="24" height="20" fill="#005f73" rx="1.5" />
            <rect x="112" y="4" width="48" height="45" rx="2" fill="#f8fafc" stroke="#e2e8f0" stroke-width="0.6" />
            <rect x="124" y="9" width="24" height="20" fill="#475569" rx="1.5" />
            <rect x="168" y="4" width="48" height="45" rx="2" fill="#f8fafc" stroke="#e2e8f0" stroke-width="0.6" />
            <rect x="180" y="9" width="24" height="20" fill="#334155" rx="1.5" />

            <!-- Row 2 -->
            <rect x="0" y="56" width="48" height="45" rx="2" fill="#f8fafc" stroke="#e2e8f0" stroke-width="0.6" />
            <rect x="19" y="61" width="10" height="20" fill="#0284c7" rx="1.5" />
            <rect x="56" y="56" width="48" height="45" rx="2" fill="#f8fafc" stroke="#e2e8f0" stroke-width="0.6" />
            <rect x="74" y="61" width="12" height="20" fill="#059669" rx="1.5" />
            <rect x="112" y="56" width="48" height="45" rx="2" fill="#f8fafc" stroke="#e2e8f0" stroke-width="0.6" />
            <circle cx="136" cy="71" r="10" fill="#e2e8f0" stroke="#94a3b8" stroke-width="0.8" />
            <rect x="168" y="56" width="48" height="45" rx="2" fill="#f8fafc" stroke="#e2e8f0" stroke-width="0.6" />
            <rect x="178" y="63" width="28" height="18" fill="#dc2626" rx="1.5" />

            <!-- Row 3 -->
            <rect x="0" y="108" width="48" height="45" rx="2" fill="#f8fafc" stroke="#e2e8f0" stroke-width="0.6" />
            <rect x="56" y="108" width="48" height="45" rx="2" fill="#f8fafc" stroke="#e2e8f0" stroke-width="0.6" />
            <rect x="112" y="108" width="48" height="45" rx="2" fill="#f8fafc" stroke="#e2e8f0" stroke-width="0.6" />
            <rect x="168" y="108" width="48" height="45" rx="2" fill="#f8fafc" stroke="#e2e8f0" stroke-width="0.6" />

            <!-- Row 4 -->
            <rect x="0" y="160" width="48" height="45" rx="2" fill="#f8fafc" stroke="#e2e8f0" stroke-width="0.6" />
            <polygon points="24,167 36,173 36,186 24,192 12,186 12,173" fill="#dc2626" />
            <rect x="56" y="160" width="48" height="45" rx="2" fill="#f8fafc" stroke="#e2e8f0" stroke-width="0.6" />
            <rect x="112" y="160" width="48" height="45" rx="2" fill="#f8fafc" stroke="#e2e8f0" stroke-width="0.6" />
            <rect x="168" y="160" width="48" height="45" rx="2" fill="#f8fafc" stroke="#e2e8f0" stroke-width="0.6" />
          </g>
        </g>
      </g>
    </g>

    <!-- SCREEN B.1 (Product Detail: Road Runner Ice Melt) -->
    <g transform="translate(345, 65)">
      <text x="0" y="12" font-size="12" font-weight="bold" fill="#64748b">B.1</text>
      <!-- Mini Browser Window -->
      <g transform="translate(0, 18)">
        <rect x="0" y="0" width="285" height="355" rx="3" fill="#ffffff" stroke="#cbd5e1" stroke-width="0.8" />
        <!-- Header -->
        <rect x="4" y="4" width="277" height="18" fill="#0284c7" rx="1.5" />
        <text x="12" y="16" font-size="8" font-weight="bold" fill="#ffffff">p* purchasing platform</text>
        <text x="155" y="16" font-size="5" fill="#e0f2fe">Corporate Catalog | My Favorites | Account | Cart</text>

        <!-- Search Bar -->
        <rect x="4" y="26" width="277" height="16" fill="#00738c" rx="1.5" />
        <rect x="6" y="29" width="230" height="10" fill="#ffffff" rx="1" />
        <rect x="240" y="29" width="37" height="10" fill="#65a30d" rx="1" />
        <text x="258" y="36.5" font-size="5" font-weight="bold" fill="#ffffff" text-anchor="middle">Go</text>

        <!-- Breadcrumb -->
        <text x="8" y="52" font-size="4.5" fill="#64748b">Home > Catalog > Road Runner Calcium Chloride Blend Ice Melt, Pallet of 50 bags, 50lbs per bag</text>

        <!-- Product Image (Orange Bag) -->
        <g transform="translate(14, 62)">
          <rect x="0" y="0" width="70" height="90" rx="2" fill="#f8fafc" stroke="#e2e8f0" stroke-width="0.7" />
          <rect x="12" y="10" width="46" height="70" rx="3" fill="#ea580c" />
          <rect x="18" y="18" width="34" height="14" fill="#0369a1" rx="1.5" />
          <text x="35" y="28" font-size="5.5" font-weight="bold" fill="#ffffff" text-anchor="middle">ICE MELT</text>
          <text x="35" y="52" font-size="4" fill="#ffffff" text-anchor="middle">Road Runner</text>
        </g>

        <!-- Product Details Column -->
        <g transform="translate(94, 62)">
          <text x="0" y="10" font-size="6.5" font-weight="bold" fill="#1e293b">Road Runner Calcium Chloride Blend Ice</text>
          <text x="0" y="20" font-size="6.5" font-weight="bold" fill="#1e293b">Melt, Pallet of 50 bags, 50lbs per bag</text>

          <text x="0" y="34" font-size="4.8" fill="#64748b">Fast-acting and gentle on ice. Calcium chloride and magnesium blend.</text>
          <text x="0" y="42" font-size="4.8" fill="#64748b">Generates melting heat quickly. Requires fewer applications than rock salt.</text>

          <text x="0" y="58" font-size="10" font-weight="bold" fill="#0284c7">$692.15</text>
          <text x="56" y="58" font-size="5" fill="#64748b">($138.43/Pallet)</text>
          <text x="0" y="67" font-size="5" font-weight="bold" fill="#16a34a">6% Savings <tspan font-weight="normal" fill="#64748b">(Includes $20.15 Service Fee)</tspan></text>

          <rect x="0" y="76" width="24" height="14" rx="1.5" fill="#f1f5f9" stroke="#cbd5e1" stroke-width="0.6" />
          <text x="12" y="86" font-size="5" fill="#334155" text-anchor="middle">Qty: 1</text>
          <rect x="30" y="76" width="70" height="14" rx="1.5" fill="#0284c7" />
          <text x="65" y="86" font-size="5.5" font-weight="bold" fill="#ffffff" text-anchor="middle">+ Add to Cart</text>
        </g>

        <!-- Tabs & Long Description -->
        <g transform="translate(8, 168)">
          <!-- Tabs -->
          <rect x="0" y="0" width="48" height="12" fill="#f8fafc" stroke="#e2e8f0" stroke-width="0.6" />
          <text x="24" y="8.5" font-size="4.5" font-weight="bold" fill="#0284c7" text-anchor="middle">Description</text>
          <rect x="52" y="0" width="55" height="12" fill="#ffffff" stroke="#e2e8f0" stroke-width="0.6" />
          <text x="79" y="8.5" font-size="4.5" fill="#64748b" text-anchor="middle">Product Details</text>
          <rect x="110" y="0" width="55" height="12" fill="#ffffff" stroke="#e2e8f0" stroke-width="0.6" />
          <text x="137" y="8.5" font-size="4.5" fill="#64748b" text-anchor="middle">Vendor Details</text>

          <!-- Spec text -->
          <text x="0" y="24" font-size="4.5" fill="#64748b">• Melts ice fast and get on your way</text>
          <text x="0" y="32" font-size="4.5" fill="#64748b">• Combines calcium and magnesium chloride pellets to melt ice upon impact</text>
          <text x="0" y="40" font-size="4.5" fill="#64748b">• Generates melting heat quickly</text>
          <text x="0" y="48" font-size="4.5" fill="#64748b">• Requires fewer applications than rock salt</text>
          <text x="0" y="56" font-size="4.5" fill="#64748b">• Safe on streets, driveways, sidewalks, steps</text>
        </g>
      </g>
    </g>

    <!-- Bottom Left Copyright and Page 12 -->
    <text x="30" y="495" font-size="6.5" fill="#94a3b8">©2016 Purchasing Platform, LLC.</text>
    <text x="635" y="495" font-size="7" fill="#94a3b8" text-anchor="end">12</text>
  </g>

  <!-- ======================================================== -->
  <!-- LAYER 3 (CENTER SHEET - ON TOP): Page 6 - Product Listing Audit (From Image 2) -->
  <!-- ======================================================== -->
  <g id="centerSheet2" transform="translate(465, 155)" filter="url(#frontShadow)">
    <!-- White Paper Sheet in Foreground -->
    <rect width="670" height="515" rx="3" fill="#ffffff" stroke="#d1d5db" stroke-width="0.9" />

    <!-- Top Right Sheet Logo -->
    <g transform="translate(585, 18)">
      <rect x="0" y="0" width="16" height="16" rx="2" fill="#0284c7" />
      <text x="8" y="11" font-size="9" font-weight="900" fill="#ffffff" text-anchor="middle">p*</text>
      <text x="20" y="8" font-size="7.5" font-weight="bold" fill="#0f172a">purchasing</text>
      <text x="20" y="15" font-size="6" fill="#64748b">platform</text>
    </g>

    <!-- LEFT COLUMN: Catalog Listing Wireframe -->
    <g transform="translate(24, 30)">
      <rect x="0" y="0" width="310" height="430" rx="3" fill="#ffffff" stroke="#cbd5e1" stroke-width="0.9" />

      <!-- Blue Header Search matching Image 2 -->
      <rect x="6" y="6" width="298" height="18" rx="2" fill="#00738c" />
      <rect x="9" y="8" width="50" height="14" rx="1.5" fill="#0369a1" />
      <text x="34" y="18" font-size="5" fill="#ffffff" text-anchor="middle">Lighting &amp; Fans v</text>
      <rect x="62" y="8" width="180" height="14" rx="1.5" fill="#ffffff" />
      <text x="68" y="18" font-size="5" fill="#64748b">type fluorescent</text>
      <rect x="246" y="8" width="54" height="14" rx="1.5" fill="#65a30d" />
      <text x="273" y="18" font-size="5.5" font-weight="bold" fill="#ffffff" text-anchor="middle">Go</text>

      <!-- Subheader Breadcrumb & Sorting -->
      <g transform="translate(8, 30)">
        <text x="0" y="8" font-size="4.5" fill="#64748b">Home > Catalog > Lighting &amp; Fans > type fluorescent (12)</text>
        <rect x="0" y="14" width="294" height="14" fill="#f8fafc" stroke="#e2e8f0" stroke-width="0.6" />
        <text x="6" y="24" font-size="4.8" font-weight="bold" fill="#1e293b">97 Items Found</text>
        <text x="180" y="24" font-size="4.5" fill="#64748b">Sort By: Relevance v</text>
        <!-- Toggle buttons -->
        <rect x="260" y="16" width="12" height="10" rx="1" fill="#e2e8f0" />
        <rect x="276" y="16" width="12" height="10" rx="1" fill="#cbd5e1" />
      </g>

      <!-- Left Rail Filters with Badge 13 -->
      <g transform="translate(8, 64)">
        <text x="0" y="8" font-size="5.5" font-weight="bold" fill="#1e293b">Specials</text>
        <text x="0" y="18" font-size="4.5" fill="#0284c7">• Core (50)</text>

        <text x="0" y="32" font-size="5.5" font-weight="bold" fill="#1e293b">Categories</text>
        <text x="0" y="42" font-size="4.5" fill="#1e293b">Lighting &amp; Fans</text>
        <text x="4" y="51" font-size="4" fill="#64748b">Lighting Fixtures &amp; Accessories (70)</text>
        <text x="4" y="59" font-size="4" fill="#64748b">Lamps, Light Bulbs, &amp; Components (22)</text>

        <text x="0" y="73" font-size="5.5" font-weight="bold" fill="#1e293b">Sold By</text>
        <text x="4" y="82" font-size="4" fill="#64748b">• Maintenance USA (90)</text>
        <text x="4" y="90" font-size="4" fill="#64748b">• Office Depot (2)</text>

        <text x="0" y="104" font-size="5.5" font-weight="bold" fill="#1e293b">Brands</text>
        <text x="4" y="113" font-size="4" fill="#64748b">Lithonia (3)</text>
        <text x="4" y="121" font-size="4" fill="#64748b">Sylvania (4)</text>
        <text x="4" y="129" font-size="4" fill="#64748b">Philips (2)</text>
      </g>

      <!-- 6 Listing Cards in 2 Rows matching Image 2 -->
      <g transform="translate(74, 64)">
        <!-- ROW 1 -->
        <!-- Card 1: Flush Mount -->
        <g transform="translate(0, 0)">
          <rect x="0" y="0" width="70" height="140" rx="2" fill="#ffffff" stroke="#e2e8f0" stroke-width="0.8" />
          <ellipse cx="35" cy="30" rx="24" ry="11" fill="#f8fafc" stroke="#94a3b8" stroke-width="1" />
          <text x="35" y="52" font-size="4.5" font-weight="bold" fill="#1e293b" text-anchor="middle">Contemporary Flush</text>
          <text x="35" y="60" font-size="4.5" font-weight="bold" fill="#1e293b" text-anchor="middle">Mount Ceiling Fixture</text>
          <text x="35" y="68" font-size="4" fill="#64748b" text-anchor="middle">With One 32 Watt...</text>
          <text x="35" y="80" font-size="6" font-weight="bold" fill="#0284c7" text-anchor="middle">$68.20</text>
          <text x="35" y="88" font-size="4.2" fill="#16a34a" text-anchor="middle">12% Savings</text>
          <rect x="6" y="96" width="58" height="14" rx="1.5" fill="#0284c7" />
          <text x="35" y="106" font-size="4.8" font-weight="bold" fill="#ffffff" text-anchor="middle">+ Add to Cart</text>
        </g>

        <!-- Card 2: CFL 26W -->
        <g transform="translate(76, 0)">
          <rect x="0" y="0" width="70" height="140" rx="2" fill="#ffffff" stroke="#e2e8f0" stroke-width="0.8" />
          <path d="M 35,16 C 35,9 43,9 43,16 L 42,38 L 36,38 Z" fill="#fef08a" stroke="#ca8a04" stroke-width="0.8" />
          <text x="35" y="52" font-size="4.5" font-weight="bold" fill="#1e293b" text-anchor="middle">Compact Fluorescent</text>
          <text x="35" y="60" font-size="4.5" font-weight="bold" fill="#1e293b" text-anchor="middle">Pic Type Lamp 26W</text>
          <text x="35" y="68" font-size="4" fill="#64748b" text-anchor="middle">Cool White 10,0...</text>
          <text x="35" y="80" font-size="6" font-weight="bold" fill="#0284c7" text-anchor="middle">$2.92</text>
          <text x="35" y="88" font-size="4.2" fill="#16a34a" text-anchor="middle">10% Savings</text>
          <rect x="6" y="96" width="58" height="14" rx="1.5" fill="#0284c7" />
          <text x="35" y="106" font-size="4.8" font-weight="bold" fill="#ffffff" text-anchor="middle">+ Add to Cart</text>
        </g>

        <!-- Card 3: CFL 13W -->
        <g transform="translate(152, 0)">
          <rect x="0" y="0" width="70" height="140" rx="2" fill="#ffffff" stroke="#e2e8f0" stroke-width="0.8" />
          <path d="M 35,16 C 35,9 43,9 43,16 L 42,38 L 36,38 Z" fill="#fef08a" stroke="#ca8a04" stroke-width="0.8" />
          <text x="35" y="52" font-size="4.5" font-weight="bold" fill="#1e293b" text-anchor="middle">Compact Fluorescent</text>
          <text x="35" y="60" font-size="4.5" font-weight="bold" fill="#1e293b" text-anchor="middle">Pic Type Lamp 13W</text>
          <text x="35" y="68" font-size="4" fill="#64748b" text-anchor="middle">Cool White 10,0...</text>
          <text x="35" y="80" font-size="6" font-weight="bold" fill="#0284c7" text-anchor="middle">$2.68</text>
          <text x="35" y="88" font-size="4.2" fill="#16a34a" text-anchor="middle">10% Savings</text>
          <rect x="6" y="96" width="58" height="14" rx="1.5" fill="#0284c7" />
          <text x="35" y="106" font-size="4.8" font-weight="bold" fill="#ffffff" text-anchor="middle">+ Add to Cart</text>
        </g>

        <!-- ROW 2: 3 More CFL Tiles -->
        <g transform="translate(0, 148)">
          <rect x="0" y="0" width="70" height="70" rx="2" fill="#ffffff" stroke="#e2e8f0" stroke-width="0.8" />
          <path d="M 35,12 C 35,6 43,6 43,12 L 42,32 L 36,32 Z" fill="#fef08a" stroke="#ca8a04" stroke-width="0.8" />
          <text x="35" y="45" font-size="4.5" font-weight="bold" fill="#1e293b" text-anchor="middle">Compact Fluorescent</text>
          <text x="35" y="53" font-size="4" fill="#64748b" text-anchor="middle">9 Watt Warm White</text>
          <rect x="76" y="0" width="70" height="70" rx="2" fill="#ffffff" stroke="#e2e8f0" stroke-width="0.8" />
          <path d="M 111,12 C 111,6 119,6 119,12 L 118,32 L 112,32 Z" fill="#fef08a" stroke="#ca8a04" stroke-width="0.8" />
          <text x="111" y="45" font-size="4.5" font-weight="bold" fill="#1e293b" text-anchor="middle">Compact Fluorescent</text>
          <text x="111" y="53" font-size="4" fill="#64748b" text-anchor="middle">9 Watt Warm White</text>
          <rect x="152" y="0" width="70" height="70" rx="2" fill="#ffffff" stroke="#e2e8f0" stroke-width="0.8" />
          <path d="M 187,12 C 187,6 195,6 195,12 L 194,32 L 188,32 Z" fill="#fef08a" stroke="#ca8a04" stroke-width="0.8" />
          <text x="187" y="45" font-size="4.5" font-weight="bold" fill="#1e293b" text-anchor="middle">Compact Fluorescent</text>
          <text x="187" y="53" font-size="4" fill="#64748b" text-anchor="middle">13 Watt Warm White</text>
        </g>
      </g>

      <!-- Badges 13, 14, 15 matching Image 2 exactly -->
      <!-- Badge 13: Left rail -->
      <g transform="translate(1, 108)">
        <circle cx="8" cy="8" r="7" fill="#f59e0b" stroke="#ffffff" stroke-width="1.5" />
        <text x="8" y="10.5" font-size="6.5" font-weight="bold" fill="#ffffff" text-anchor="middle">13</text>
      </g>
      <!-- Badge 14: Toggle -->
      <g transform="translate(285, 34)">
        <circle cx="8" cy="8" r="7" fill="#f59e0b" stroke="#ffffff" stroke-width="1.5" />
        <text x="8" y="10.5" font-size="6.5" font-weight="bold" fill="#ffffff" text-anchor="middle">14</text>
      </g>
      <!-- Badge 15: Action bar spacing -->
      <g transform="translate(90, 158)">
        <circle cx="8" cy="8" r="7" fill="#f59e0b" stroke="#ffffff" stroke-width="1.5" />
        <text x="8" y="10.5" font-size="6.5" font-weight="bold" fill="#ffffff" text-anchor="middle">15</text>
      </g>
    </g>

    <!-- RIGHT COLUMN: Findings 13, 14, 15 (Exact copy from Image 2) -->
    <g transform="translate(350, 48)">
      <!-- Item 13 -->
      <g transform="translate(0, 0)">
        <text x="0" y="10" font-size="8" font-weight="bold" fill="#0f172a">13.</text>
        <text x="20" y="10" font-size="7.5" fill="#1e293b">Filtering via the left rail should be clearly organized</text>
        <text x="20" y="20" font-size="7.5" fill="#1e293b">and differentiated by section. Also, limits should be</text>
        <text x="20" y="30" font-size="7.5" fill="#1e293b">set by what gets displayed by default with any</text>
        <text x="20" y="40" font-size="7.5" fill="#1e293b">additional mechanisms revealed with a "see more..." CTA.</text>
        <text x="20" y="52" font-size="7.5" font-weight="bold" fill="#15803d">Recommendation: <tspan font-weight="normal" fill="#166534">Redesign the left rail to better</tspan></text>
        <text x="20" y="62" font-size="7.5" fill="#166534">use the specifications available. Visually distinguish the</text>
        <text x="20" y="72" font-size="7.5" fill="#166534">different characteristics that are available. Only show the</text>
        <text x="20" y="82" font-size="7.5" fill="#166534">top five attributes per characteristic with a "see more..."</text>
      </g>

      <!-- Item 14 -->
      <g transform="translate(0, 102)">
        <text x="0" y="10" font-size="8" font-weight="bold" fill="#0f172a">14.</text>
        <text x="20" y="10" font-size="7.5" fill="#1e293b">There is no visual indicator as to which (of the</text>
        <text x="20" y="20" font-size="7.5" fill="#1e293b">toggle) is selected. Whenever a selection is made,</text>
        <text x="20" y="30" font-size="7.5" fill="#1e293b">even by default, it should be indicated.</text>
        <text x="20" y="42" font-size="7.5" font-weight="bold" fill="#15803d">Recommendation: <tspan font-weight="normal" fill="#166534">Show the default, selected</tspan></text>
        <text x="20" y="52" font-size="7.5" fill="#166534">state, active.</text>
      </g>

      <!-- Item 15 -->
      <g transform="translate(0, 172)">
        <text x="0" y="10" font-size="8" font-weight="bold" fill="#0f172a">15.</text>
        <text x="20" y="10" font-size="7.5" fill="#1e293b">There is extra space below the bottom action bar in</text>
        <text x="20" y="20" font-size="7.5" fill="#1e293b">each of these tiles.</text>
        <text x="20" y="32" font-size="7.5" font-weight="bold" fill="#15803d">Recommendation: <tspan font-weight="normal" fill="#166534">Make sure padding and</tspan></text>
        <text x="20" y="42" font-size="7.5" fill="#166534">spacing is appropriate for each module.</text>
      </g>
    </g>

    <!-- Bottom Left Copyright and Page 6 -->
    <text x="24" y="492" font-size="6.5" fill="#94a3b8">©2016 Purchasing Platform, LLC.</text>
    <text x="645" y="492" font-size="7.5" fill="#94a3b8" text-anchor="end">6</text>
  </g>
</svg>
